# xmcd
#
# Track frame offsets: 
#        150
#        11804
#        26187
#        35075
#        49606
#        65233
#        75957
#        92031
#        106107
#        121327
#        133712
#        148739
#        161640
#        172665
#        187013
#        205479
#        223065
#        241404
#
# Disc length: 3435 seconds
#
# Revision: 1
# Processed by: cddbd v1.5.2PL0 Copyright (c) Steve Scherf et al.
# Submitted via: ExactAudioCopy v0.99pb5
#
DISCID=040d6912
DTITLE=Trubadurii din Transilvania - The World Music On Streets
DYEAR=2007
DGENRE=Instrumental
TTITLE0=Paco de Lucia Theme
TTITLE1=La Paloma
TTITLE2=Comacero
TTITLE3=Son of Pireus
TTITLE4=Sarba
TTITLE5=Pano sta kimata
TTITLE6=Anglo-Saxonian dance
TTITLE7=La Murflatar
TTITLE8=Brasil
TTITLE9=Historia d'Amour
TTITLE10=Song from Elada
TTITLE11=El Condor Pasa
TTITLE12=Last summer
TTITLE13=Ilagiali (feat. Yiogos Michail)
TTITLE14=The seaguls
TTITLE15=Lene Gia Meri (feat. Yiogios Michail)
TTITLE16=Stis Acropolis Ta Meri (ver)
TTITLE17=Mures Tamulus Baiar
EXTD=
EXTT0=
EXTT1=
EXTT2=
EXTT3=
EXTT4=
EXTT5=
EXTT6=
EXTT7=
EXTT8=
EXTT9=
EXTT10=
EXTT11=
EXTT12=
EXTT13=
EXTT14=
EXTT15=
EXTT16=
EXTT17=
PLAYORDER=
